<?xml version="1.0" standalone="no"?>
<!DOCTYPE svg PUBLIC "-//W3C//DTD SVG 20010904//EN"
 "http://www.w3.org/TR/2001/REC-SVG-20010904/DTD/svg10.dtd">
<svg version="1.0" xmlns="http://www.w3.org/2000/svg"
 width="568.000000pt" height="440.000000pt" viewBox="0 0 568.000000 440.000000"
 preserveAspectRatio="xMidYMid meet">

<g transform="translate(0.000000,440.000000) scale(0.100000,-0.100000)"
fill="#fff" stroke="none">
<path d="M1880 3829 c-67 -26 -146 -84 -194 -142 -70 -86 -125 -243 -126 -359
0 -126 65 -300 144 -381 183 -189 422 -195 612 -15 103 97 159 254 152 422 -9
212 -108 375 -278 459 -57 28 -75 32 -160 34 -77 2 -105 -1 -150 -18z"/>
<path d="M3229 3836 c-152 -58 -253 -168 -304 -329 -31 -98 -35 -236 -10 -331
39 -149 143 -278 272 -339 62 -29 77 -32 163 -32 82 0 103 4 152 27 72 34 136
81 179 135 216 269 133 708 -160 847 -58 27 -78 31 -161 33 -61 2 -108 -2
-131 -11z"/>
<path d="M4369 3055 c-91 -25 -162 -68 -245 -150 -128 -127 -181 -256 -172
-415 15 -248 230 -387 480 -310 154 47 302 187 359 339 75 202 34 387 -108
488 -84 60 -205 79 -314 48z"/>
<path d="M752 3045 c-84 -26 -141 -75 -183 -157 -90 -177 -11 -436 180 -592
198 -161 428 -179 575 -45 80 73 101 127 100 259 -1 93 -4 113 -30 175 -71
168 -218 305 -383 355 -74 23 -194 26 -259 5z"/>
<path d="M2470 2435 c-363 -60 -734 -269 -1066 -600 -196 -195 -340 -393 -412
-568 -22 -52 -26 -76 -25 -152 2 -213 72 -346 231 -438 258 -151 352 -151 672
0 224 106 243 105 515 -17 199 -90 249 -104 347 -97 71 5 91 12 235 81 87 41
180 80 206 87 83 20 180 7 282 -39 272 -121 253 -115 351 -120 76 -4 103 -1
159 17 205 67 328 154 386 276 56 118 61 294 14 430 -74 210 -305 495 -582
718 -248 198 -553 347 -840 408 -127 27 -354 34 -473 14z m85 -584 c28 -12 68
-40 91 -62 l40 -39 44 41 c61 58 119 81 220 86 99 6 177 -17 237 -70 99 -87
95 -208 -11 -346 -74 -95 -169 -172 -346 -278 -154 -92 -142 -89 -208 -52
-222 126 -413 291 -471 408 -35 72 -41 147 -17 204 18 44 90 104 146 122 68
22 211 15 275 -14z"/>
</g>
</svg>
